<?xml version="1.0" standalone="no"?>
<!DOCTYPE svg PUBLIC "-//W3C//DTD SVG 20010904//EN"
 "http://www.w3.org/TR/2001/REC-SVG-20010904/DTD/svg10.dtd">
<svg version="1.0" xmlns="http://www.w3.org/2000/svg"
 width="120px" height="120px" viewBox="0 0 2500.000000 2500.000000"
 preserveAspectRatio="xMidYMid meet">

<g transform="translate(0.000000,2500.000000) scale(0.100000,-0.100000)"
fill="#000000" stroke="none">
<path d="M1493 19185 c-124 -35 -188 -71 -274 -155 -83 -82 -137 -177 -158
-278 -16 -75 -16 -8669 0 -8744 19 -94 82 -210 152 -280 75 -75 153 -119 271
-153 l87 -25 2067 3 c1967 2 2070 3 2127 20 220 67 378 228 421 429 11 52 13
793 14 4378 0 4753 5 4368 -62 4507 -42 88 -149 196 -237 242 -36 19 -107 45
-159 58 l-95 23 -2036 -1 -2036 -1 -82 -23z m1029 -215 c-2 -14 -5 -70 -5
-125 -2 -94 0 -103 28 -154 16 -29 49 -70 73 -91 83 -74 30 -70 1049 -70 l914
0 54 26 c68 32 138 108 160 175 16 47 17 129 3 239 l-3 25 410 0 c401 0 411
-1 477 -23 149 -51 258 -171 300 -327 11 -41 13 -798 13 -4270 l0 -4220 -23
-72 c-41 -130 -146 -241 -281 -295 l-56 -23 -1965 -3 c-1242 -2 -1988 1 -2028
7 -134 21 -269 114 -330 229 -67 125 -62 -240 -62 4377 0 4541 -3 4261 53
4371 36 70 92 131 161 176 111 71 147 76 661 74 l400 -1 -3 -25z"/>
<path d="M4420 17385 c-118 -355 -216 -645 -218 -645 -2 0 -1 13 3 29 6 26 -1
39 -49 96 l-56 65 -1 78 c0 42 -4 95 -8 117 l-8 40 -6 -35 c-8 -45 -27 -198
-27 -219 0 -16 107 -154 136 -177 12 -10 -2 -62 -97 -350 -173 -530 -322 -981
-434 -1324 -57 -173 -118 -360 -136 -415 -17 -55 -35 -104 -38 -108 -4 -4 -15
9 -23 30 -84 206 -158 394 -158 403 0 5 36 83 81 172 l81 162 -31 175 c-18 97
-35 187 -38 201 l-6 25 -7 -25 c-5 -14 -8 -98 -9 -186 l-1 -162 -50 -123 c-27
-68 -53 -125 -57 -126 -8 -3 -31 48 -94 211 -21 55 -43 104 -48 109 -12 12 2
-47 62 -258 111 -395 139 -497 134 -501 -6 -7 -259 168 -268 186 -5 8 -28 76
-51 150 -51 161 -56 149 -33 -82 13 -141 18 -165 36 -177 11 -8 68 -50 127
-94 59 -43 136 -100 172 -125 36 -26 68 -51 72 -56 3 -5 13 -37 22 -71 l15
-62 -44 -134 c-32 -98 -41 -135 -32 -141 7 -4 107 -8 223 -8 l211 0 -31 -112
-31 -113 -65 -21 c-36 -11 -129 -38 -208 -59 -139 -38 -144 -40 -165 -75 -20
-36 -22 -37 -151 -64 -192 -40 -198 -44 -76 -47 58 -1 115 -2 128 -1 12 0 22
-3 22 -8 0 -5 -46 -87 -103 -182 -117 -195 -130 -218 -123 -218 3 0 86 107
185 239 99 131 186 243 193 248 17 13 109 36 116 28 3 -3 1 -34 -4 -71 -6 -36
-7 -67 -4 -69 3 -2 30 35 58 84 52 87 52 87 104 98 29 6 55 9 57 7 2 -2 -16
-79 -40 -170 -28 -107 -49 -169 -59 -173 -8 -3 -67 -34 -130 -68 -112 -60
-116 -64 -143 -119 -15 -31 -25 -59 -22 -62 3 -3 34 21 68 55 54 52 71 62 130
78 37 9 70 15 74 12 11 -12 -89 -361 -111 -383 -18 -19 -124 -70 -410 -198
-32 -14 -57 -28 -54 -31 2 -3 69 13 149 34 79 22 145 38 147 36 2 -1 -67 -69
-151 -151 -148 -143 -159 -156 -272 -332 -64 -101 -115 -185 -113 -188 3 -2
24 20 48 48 188 226 303 357 311 352 5 -3 9 -58 10 -122 0 -126 12 -185 23
-122 3 19 17 102 31 184 14 83 27 150 28 151 1 1 53 46 116 100 64 56 111 91
108 80 -11 -35 -242 -890 -307 -1135 -60 -225 -185 -693 -197 -735 -4 -14 -2
-17 5 -10 6 6 56 116 110 245 105 248 467 1100 757 1780 450 1057 645 1516
645 1523 0 4 -112 7 -248 7 -137 0 -251 2 -254 5 -3 3 7 68 23 143 16 75 29
140 29 143 0 3 21 13 48 22 141 46 388 139 398 150 6 7 16 95 23 197 7 102 14
212 17 245 l4 60 -15 -50 c-8 -27 -29 -126 -47 -219 l-33 -168 -50 -19 c-27
-11 -56 -19 -62 -19 -10 0 -13 30 -13 118 0 153 -12 170 -34 50 -28 -151 -31
-188 -15 -189 8 0 -32 -18 -89 -41 -57 -22 -105 -38 -107 -36 -4 4 161 833
180 911 4 16 13 30 19 32 6 2 51 15 100 30 67 20 91 24 96 14 4 -6 11 -53 15
-104 3 -50 10 -97 14 -103 4 -6 14 42 24 108 9 67 19 125 22 129 3 5 36 19 74
30 39 12 73 26 76 31 16 25 84 231 75 225 -6 -3 -28 -39 -50 -78 -22 -40 -44
-78 -48 -85 -10 -15 -210 -63 -217 -53 -3 7 9 173 20 271 9 78 -13 32 -61
-130 -25 -85 -49 -158 -53 -162 -4 -4 -21 -11 -39 -14 -28 -6 -32 -4 -32 15 0
20 193 994 226 1143 9 37 20 66 26 65 12 -2 171 253 162 262 -3 3 -36 -28 -74
-69 -55 -59 -70 -70 -70 -54 0 12 36 199 80 415 44 217 79 402 78 412 -2 10
-100 -273 -218 -628z"/>
<path d="M3826 16259 c-41 -121 -38 -120 -82 -45 -39 67 -59 84 -49 44 3 -13
13 -59 23 -103 l19 -79 18 27 c26 41 28 28 4 -39 l-20 -59 48 -152 c26 -84 51
-153 55 -153 4 0 14 15 22 34 13 32 12 43 -21 161 l-35 127 27 148 c15 82 25
154 23 160 -2 7 -17 -25 -32 -71z"/>
<path d="M3971 13266 c-12 -18 -21 -41 -21 -50 0 -9 40 -97 90 -196 l90 -179
-29 -83 c-58 -164 -150 -463 -144 -468 3 -3 7 0 9 5 4 9 203 363 222 395 12
19 7 26 72 -108 44 -90 52 -116 44 -130 -9 -14 -231 -428 -267 -497 -27 -53
36 25 129 157 152 218 214 319 214 347 0 14 -16 62 -34 106 -37 87 -173 388
-206 457 l-21 43 24 -29 c21 -24 33 -29 93 -34 58 -4 79 -11 132 -45 35 -22
65 -37 68 -35 2 3 -16 41 -41 84 l-45 79 -122 5 -123 5 -49 103 c-27 56 -53
102 -57 102 -4 0 -17 -15 -28 -34z"/>
<path d="M20816 16563 c-3 -10 -19 -97 -36 -194 -16 -96 -34 -199 -40 -228 -5
-30 -10 -64 -10 -77 l0 -24 210 0 c160 0 211 3 214 13 2 6 9 41 15 77 6 36 24
140 41 231 16 91 30 178 30 193 l0 26 -209 0 c-191 0 -210 -2 -215 -17z"/>
<path d="M23316 16393 c-6 -24 -22 -105 -45 -243 -19 -110 -42 -236 -61 -345
-5 -27 -18 -102 -29 -165 -11 -63 -27 -153 -35 -200 -8 -47 -35 -200 -60 -340
-25 -140 -52 -295 -61 -345 -9 -49 -25 -139 -35 -200 -11 -60 -33 -186 -50
-280 -17 -93 -38 -227 -46 -298 -14 -113 -14 -139 -1 -227 26 -177 98 -282
241 -349 116 -55 181 -66 391 -66 190 0 237 7 358 52 221 82 366 309 436 683
44 235 98 543 107 603 l6 47 -183 -2 -183 -3 -7 -30 c-7 -33 -11 -57 -64 -365
-20 -113 -45 -243 -55 -290 -53 -230 -154 -316 -360 -308 -122 4 -180 30 -224
101 -51 83 -45 193 34 597 11 56 24 132 50 280 11 63 24 138 29 165 6 28 27
147 47 265 20 118 41 221 47 228 7 9 119 12 498 12 269 0 489 3 489 8 0 4 14
79 30 167 16 88 30 170 30 183 l0 22 -490 0 c-460 0 -490 1 -490 18 0 9 7 55
16 102 16 89 23 129 49 275 8 50 22 125 30 168 8 44 12 83 9 88 -3 5 -97 9
-209 9 -185 0 -204 -2 -209 -17z"/>
<path d="M14925 16279 l-35 -31 0 -1232 c0 -1297 1 -1307 45 -1456 44 -144
163 -299 280 -364 189 -104 514 -136 765 -75 81 20 176 66 237 115 89 73 173
243 205 415 7 40 13 223 15 483 l3 420 -32 33 -32 33 -186 0 -186 0 -31 -32
-31 -33 -5 -375 c-5 -418 -10 -455 -70 -515 -43 -43 -131 -61 -219 -45 -78 14
-110 31 -142 72 -57 76 -57 74 -54 783 l3 650 460 3 459 2 33 32 33 32 -1 195
0 196 -41 33 -40 32 -454 0 -454 0 0 293 0 293 -38 37 -38 37 -207 0 -206 0
-36 -31z"/>
<path d="M17945 15774 c-63 -9 -152 -37 -210 -67 -71 -35 -195 -155 -249 -239
-34 -55 -56 -72 -56 -47 0 6 7 57 15 113 8 55 16 126 17 156 l3 55 -187 3
-188 2 -4 -22 c-3 -13 -10 -52 -16 -88 -6 -36 -15 -85 -20 -110 -5 -25 -18
-99 -29 -165 -12 -66 -37 -208 -56 -315 -19 -107 -46 -262 -60 -345 -15 -82
-36 -199 -46 -260 -11 -60 -29 -159 -39 -220 -11 -60 -29 -162 -40 -225 -11
-63 -32 -180 -46 -260 -13 -80 -36 -206 -49 -280 -13 -74 -33 -187 -44 -250
-20 -116 -45 -254 -61 -345 -5 -27 -18 -102 -29 -165 -11 -63 -34 -191 -50
-285 -17 -93 -31 -185 -31 -202 l0 -33 203 0 204 0 11 38 c6 20 13 53 17 72 3
19 21 125 40 235 20 110 47 263 60 340 14 77 34 192 45 255 19 105 74 419 87
498 8 44 23 36 44 -24 47 -140 150 -226 305 -255 92 -17 264 -5 351 24 200 68
334 212 413 442 21 59 58 254 141 735 11 63 24 138 29 165 90 499 92 519 87
645 -5 140 -27 206 -94 281 -58 63 -110 97 -188 121 -59 18 -221 31 -280 22z
m-14 -398 c39 -16 94 -73 111 -115 6 -14 11 -62 11 -106 0 -69 -10 -139 -63
-425 -11 -62 -55 -309 -95 -535 -14 -82 -35 -181 -46 -219 -37 -124 -104 -204
-209 -247 -38 -15 -215 -20 -262 -6 -72 20 -132 108 -158 234 -17 84 -14 111
50 468 17 97 41 231 61 345 47 271 50 284 92 364 81 151 169 233 278 256 59
12 186 5 230 -14z"/>
<path d="M19485 15771 c-113 -14 -204 -40 -305 -88 -158 -76 -273 -208 -349
-401 -33 -83 -57 -189 -100 -437 -23 -126 -45 -255 -51 -285 -103 -553 -119
-689 -100 -815 33 -217 153 -340 390 -397 86 -20 415 -17 507 5 318 76 488
248 581 587 19 67 47 219 152 820 17 96 35 195 40 220 62 311 26 529 -109 652
-66 61 -126 90 -236 117 -96 24 -308 35 -420 22z m217 -400 c79 -24 133 -96
144 -193 6 -53 -1 -116 -30 -278 -8 -47 -22 -125 -31 -175 -9 -49 -20 -112
-25 -140 -5 -27 -18 -102 -29 -165 -75 -430 -82 -461 -136 -546 -66 -104 -168
-154 -313 -154 -97 0 -149 14 -200 55 -78 62 -93 169 -54 385 12 63 28 156 37
205 9 50 20 113 25 140 5 28 18 102 29 165 53 307 63 359 77 415 51 204 188
310 389 301 44 -2 97 -9 117 -15z"/>
<path d="M22254 15771 c-176 -28 -326 -130 -434 -294 -44 -67 -76 -88 -65 -44
11 45 43 302 38 310 -2 4 -89 7 -193 7 -140 0 -191 -3 -197 -12 -7 -12 -19
-72 -63 -323 -10 -60 -28 -162 -39 -225 -12 -63 -37 -205 -56 -315 -19 -110
-44 -252 -56 -315 -11 -63 -29 -167 -40 -230 -11 -63 -24 -137 -29 -165 -16
-91 -41 -229 -61 -345 -11 -63 -31 -178 -44 -255 -14 -77 -27 -155 -30 -172
l-6 -33 214 0 215 0 11 63 c21 115 80 451 100 567 20 116 45 253 61 345 5 28
18 102 29 165 91 526 98 558 137 629 78 143 161 226 254 253 72 21 217 16 265
-9 109 -57 138 -160 100 -359 -16 -88 -36 -203 -65 -369 -25 -144 -46 -266
-70 -395 -10 -58 -39 -224 -65 -370 -26 -146 -55 -312 -66 -370 -10 -58 -19
-115 -19 -127 l0 -23 215 0 214 0 6 38 c3 20 10 57 15 82 5 25 18 99 29 165
12 66 37 208 56 315 19 107 43 247 54 310 20 116 45 253 61 345 5 28 18 102
29 165 11 63 32 183 47 265 33 180 37 350 12 432 -44 139 -142 234 -287 279
-57 18 -209 26 -277 15z"/>
<path d="M20671 15728 c-5 -13 -14 -52 -20 -88 -11 -64 -95 -540 -146 -835
-15 -82 -36 -199 -46 -260 -11 -60 -29 -159 -39 -220 -11 -60 -33 -186 -49
-280 -16 -93 -39 -224 -51 -290 -11 -66 -32 -180 -45 -254 -14 -74 -25 -136
-25 -138 0 -1 96 -3 214 -3 l215 0 10 58 c26 137 29 150 132 737 22 127 49
280 59 340 10 61 28 160 39 220 10 61 31 178 46 260 14 83 51 289 80 458 30
170 55 311 55 313 0 2 -95 4 -210 4 -209 0 -210 0 -219 -22z"/>
<path d="M7255 15669 c-33 -4 -85 -13 -115 -19 -251 -52 -429 -203 -502 -425
-21 -64 -17 -404 5 -475 41 -130 132 -239 278 -332 112 -72 355 -210 508 -289
150 -77 223 -140 241 -209 7 -26 10 -82 8 -131 -5 -108 -24 -144 -93 -179 -45
-22 -62 -24 -175 -25 -144 0 -199 18 -241 76 -21 30 -24 47 -29 167 l-5 134
-33 29 -32 29 -209 0 -209 0 -31 -35 c-30 -35 -31 -38 -31 -138 0 -258 64
-433 205 -566 67 -62 103 -84 197 -122 214 -86 589 -91 843 -11 161 50 299
185 356 348 69 196 64 528 -11 680 -76 155 -271 301 -575 430 -181 76 -386
199 -421 251 -15 23 -19 47 -19 123 0 82 3 99 22 126 34 47 91 67 210 72 117
5 183 -11 226 -56 38 -40 47 -73 47 -181 l0 -99 40 -36 40 -36 196 0 196 0 35
35 36 36 -6 142 c-6 161 -19 218 -77 334 -72 145 -198 252 -367 308 -136 46
-357 65 -508 44z"/>
<path d="M9385 15666 c-115 -26 -191 -64 -269 -138 -33 -32 -61 -56 -62 -55
-1 1 -6 40 -11 87 l-8 85 -228 3 -229 2 -34 -34 -34 -34 0 -1199 0 -1199 33
-32 33 -32 215 0 215 0 32 33 32 32 2 855 3 855 22 55 c65 159 123 209 244
210 82 0 124 -14 167 -54 69 -65 67 -31 69 -1026 l3 -894 32 -33 32 -33 206 0
206 0 32 33 32 33 0 835 c0 822 0 837 21 900 59 180 122 239 254 239 77 0 121
-14 162 -53 70 -66 67 -21 71 -1022 l3 -900 31 -32 32 -33 216 0 216 0 32 33
32 33 0 959 c0 818 -2 971 -15 1032 -49 234 -173 385 -380 463 -45 17 -174 40
-225 40 -55 0 -168 -22 -233 -44 -99 -35 -186 -99 -255 -188 -25 -32 -48 -58
-52 -58 -3 0 -25 27 -48 60 -71 100 -176 170 -309 205 -80 22 -215 27 -288 11z"/>
<path d="M12130 15665 c-109 -14 -133 -20 -215 -47 -167 -56 -301 -164 -363
-291 -48 -97 -72 -224 -72 -383 l0 -132 40 -36 40 -36 193 0 193 0 34 29 35
29 6 118 c6 130 19 169 66 202 47 33 104 45 208 45 80 0 110 -4 147 -21 72
-31 88 -65 88 -182 0 -68 -4 -102 -15 -116 -21 -31 -104 -68 -245 -109 -404
-118 -563 -192 -674 -316 -115 -128 -156 -285 -156 -599 0 -243 16 -341 78
-464 82 -167 228 -249 465 -263 218 -13 378 36 510 157 30 27 60 50 66 50 6 0
11 -34 13 -87 l3 -88 227 -3 227 -2 36 34 36 35 -4 998 c-3 1105 1 1034 -69
1172 -69 136 -208 237 -388 282 -71 18 -256 39 -334 38 -45 -1 -124 -7 -176
-14z m410 -1564 c0 -267 0 -267 -26 -318 -31 -63 -87 -122 -139 -148 -50 -25
-219 -34 -268 -14 -93 36 -112 93 -105 320 4 162 19 221 64 261 30 26 133 74
204 97 221 68 256 78 263 74 4 -2 7 -125 7 -272z"/>
<path d="M14270 15664 c-108 -23 -186 -68 -273 -156 -43 -43 -80 -78 -82 -78
-3 0 -5 47 -5 104 0 85 -3 105 -16 110 -9 3 -113 6 -231 6 l-215 0 -39 -39
-39 -39 0 -1186 0 -1186 36 -40 36 -40 214 0 214 0 32 29 33 29 6 769 c6 825
2 769 58 925 43 124 107 200 206 244 53 24 72 27 165 27 76 0 116 -5 145 -17
40 -17 40 -17 92 11 l53 28 0 217 0 216 -32 19 c-32 18 -73 32 -153 53 -53 13
-125 11 -205 -6z"/>
</g>
</svg>
